<svg width="1699" height="2297" viewBox="0 0 1699 2297" fill="none" xmlns="http://www.w3.org/2000/svg">
<rect y="162.142" width="1699" height="2134.86" rx="150" fill="#2A2A2A"/>
<rect width="1699" height="2188.91" rx="150" fill="#3A3A3A"/>
<rect x="133" y="199" width="1433" height="346" rx="120" fill="#9E9E9E"/>
<rect x="133" y="148" width="1433" height="346" rx="120" fill="#A8A8A8"/>
<rect x="167" y="702.514" width="401" height="349.486" rx="120" fill="#9E9E9E"/>
<rect x="167" y="651" width="401" height="349.486" rx="120" fill="#A8A8A8"/>
<rect x="167" y="1196.51" width="401" height="349.486" rx="120" fill="#9E9E9E"/>
<rect x="167" y="1145" width="401" height="349.486" rx="120" fill="#A8A8A8"/>
<rect x="167" y="1690.51" width="401" height="349.486" rx="120" fill="#9E9E9E"/>
<rect x="167" y="1639" width="401" height="349.486" rx="120" fill="#A8A8A8"/>
<rect x="651" y="1690.51" width="401" height="349.486" rx="120" fill="#9E9E9E"/>
<rect x="651" y="1639" width="401" height="349.486" rx="120" fill="#A8A8A8"/>
<rect x="651" y="1198.51" width="401" height="349.486" rx="120" fill="#9E9E9E"/>
<rect x="651" y="1147" width="401" height="349.486" rx="120" fill="#A8A8A8"/>
<rect x="651" y="706.514" width="401" height="349.486" rx="120" fill="#9E9E9E"/>
<rect x="651" y="655" width="401" height="349.486" rx="120" fill="#A8A8A8"/>
<rect x="1130" y="706.514" width="401" height="349.486" rx="120" fill="#9E9E9E"/>
<rect x="1130" y="655" width="401" height="349.486" rx="120" fill="#A8A8A8"/>
<rect x="1135" y="1196.51" width="401" height="349.486" rx="120" fill="#9E9E9E"/>
<rect x="1135" y="1145" width="401" height="349.486" rx="120" fill="#A8A8A8"/>
<rect x="1140" y="1686.51" width="401" height="349.486" rx="120" fill="#C35E00"/>
<rect x="1140" y="1635" width="401" height="349.486" rx="120" fill="#FF7B00"/>
</svg>
